<svg width="100" height="55" viewBox="0 0 100 55" fill="none" xmlns="http://www.w3.org/2000/svg">
<path d="M21.9739 32.0601C23.1143 33.1046 23.6845 34.6886 23.6845 36.8121V44.6587C23.6881 44.8219 23.6276 44.9799 23.516 45.099C23.4578 45.1599 23.3872 45.2076 23.3089 45.2389C23.2307 45.2702 23.1466 45.2843 23.0624 45.2803H20.9891C20.8241 45.2803 20.6659 45.2148 20.5492 45.0982C20.4326 44.9817 20.367 44.8236 20.367 44.6587V36.9416C20.367 34.49 19.1316 33.2642 16.6608 33.2642H14.8984C14.734 33.9727 14.6128 34.6905 14.5356 35.4137C14.4628 36.1796 14.4369 36.9493 14.4578 37.7185L14.5874 44.6587C14.5874 44.8236 14.5219 44.9817 14.4052 45.0982C14.2886 45.2148 14.1304 45.2803 13.9654 45.2803L9.40394 45.2544C9.23897 45.2544 9.08075 45.1889 8.9641 45.0723C8.84745 44.9558 8.78192 44.7977 8.78192 44.6329V43.2085C8.77791 43.1244 8.79203 43.0404 8.82333 42.9622C8.85463 42.8841 8.90238 42.8135 8.96334 42.7553C9.08254 42.6439 9.2407 42.5834 9.40394 42.587L11.4514 42.6129V37.7962C11.431 37.0143 11.4526 36.232 11.5162 35.4525C11.586 34.7147 11.7116 33.9831 11.892 33.2642H10.4147C10.2497 33.2642 10.0915 33.1988 9.97488 33.0822C9.85823 32.9657 9.7927 32.8076 9.7927 32.6427V31.1148C9.78869 31.0307 9.80281 30.9467 9.83411 30.8685C9.86541 30.7903 9.91316 30.7198 9.97412 30.6616C10.0933 30.5501 10.2515 30.4897 10.4147 30.4933H16.8163C19.1144 30.4937 20.8335 31.0159 21.9739 32.0601Z" fill="white"/>
<path d="M25.7837 39.0397C25.7248 38.9826 25.6783 38.9141 25.6471 38.8384C25.6159 38.7626 25.6006 38.6813 25.6022 38.5994V31.1153C25.5982 31.0312 25.6123 30.9472 25.6436 30.869C25.6749 30.7908 25.7227 30.7203 25.7837 30.6621C25.9027 30.5504 26.061 30.4899 26.2242 30.4938H28.4272C28.5105 30.4876 28.5941 30.4994 28.6724 30.5285C28.7507 30.5575 28.8218 30.6031 28.8808 30.6621C28.9399 30.7211 28.9855 30.7921 29.0145 30.8703C29.0436 30.9485 29.0554 31.0321 29.0493 31.1153V38.5994C29.0528 38.7625 28.9924 38.9206 28.8808 39.0397C28.8226 39.1005 28.7519 39.1482 28.6737 39.1795C28.5955 39.2107 28.5114 39.2249 28.4272 39.2209H26.2242C26.1423 39.2226 26.0609 39.2073 25.9851 39.1762C25.9092 39.145 25.8407 39.0985 25.7837 39.0397Z" fill="white"/>
<path d="M40.8674 32.0735C41.835 33.127 42.3188 34.8102 42.3188 37.1233C42.3188 39.3162 41.7227 41.0772 40.5305 42.4062C39.3383 43.7352 37.8178 44.6762 35.969 45.229L34.9064 45.5656C34.8265 45.592 34.741 45.5963 34.6589 45.578C34.5768 45.5598 34.5011 45.5197 34.4399 45.462C34.3727 45.4047 34.3192 45.3331 34.2833 45.2525C34.2474 45.1718 34.2301 45.0841 34.2326 44.9959V43.1054C34.2349 42.9434 34.2946 42.7875 34.401 42.6652C34.5209 42.522 34.6778 42.4145 34.8546 42.3544L35.7617 41.9919C36.7638 41.5951 37.537 41.0341 38.0813 40.3086C38.6256 39.5832 38.8977 38.53 38.8977 37.1492C38.8977 36.1997 38.7897 35.453 38.5737 34.9092C38.3578 34.3653 37.9949 33.9726 37.4852 33.7309C36.9752 33.4892 36.2711 33.3683 35.3729 33.3683H34.5695L31.6667 33.3424C31.4952 33.3493 31.3278 33.2889 31.2002 33.1741C31.1409 33.1202 31.094 33.054 31.0627 32.9803C31.0314 32.9065 31.0164 32.8269 31.0188 32.7468V27.5157C31.0173 27.4338 31.0326 27.3525 31.0638 27.2768C31.095 27.2011 31.1415 27.1325 31.2002 27.0755C31.2615 27.0151 31.3345 26.9679 31.4147 26.9367C31.495 26.9055 31.5807 26.8911 31.6667 26.8942H33.5587C33.642 26.888 33.7256 26.8998 33.8039 26.9289C33.8822 26.9579 33.9532 27.0035 34.0123 27.0625C34.0713 27.1215 34.1169 27.1925 34.146 27.2707C34.1751 27.3489 34.1869 27.4325 34.1807 27.5157V30.4938H35.969C38.2671 30.4938 39.8999 31.0204 40.8674 32.0735Z" fill="white"/>
<path d="M54.072 45.0989C53.9423 45.2201 53.77 45.2852 53.5925 45.2801H51.4155C51.3365 45.2827 51.2578 45.2691 51.1842 45.2402C51.1107 45.2112 51.0439 45.1675 50.9878 45.1118C50.8706 44.9891 50.8015 44.8281 50.7935 44.6586L50.301 42.2243C49.8082 42.9254 49.1831 43.5236 48.4609 43.9853C47.8801 44.3594 47.2689 44.684 46.6337 44.9559C46.0613 45.1921 45.4665 45.37 44.8583 45.4868L44.6769 45.5127C44.3832 45.5127 44.2363 45.3746 44.2363 45.0983V43.0784C44.2363 42.7853 44.4178 42.5695 44.7806 42.431C44.8673 42.3965 45.2345 42.2756 45.8821 42.0684C46.4538 41.8939 47.0054 41.6596 47.5278 41.3692C47.9719 41.1226 48.3779 40.8129 48.733 40.4499C49.1016 40.0866 49.4276 39.6826 49.7049 39.2457L49.2125 36.8114C48.9533 35.5339 48.6337 34.6232 48.2535 34.0794C47.8734 33.5355 47.26 33.2636 46.4134 33.2636H45.5063C45.4203 33.2669 45.3345 33.2525 45.2542 33.2213C45.174 33.1901 45.101 33.1428 45.0398 33.0823C44.981 33.0252 44.9346 32.9567 44.9034 32.881C44.8722 32.8053 44.8569 32.724 44.8583 32.6421V31.0106C44.857 30.9287 44.8724 30.8475 44.9036 30.7718C44.9348 30.6961 44.9811 30.6275 45.0398 30.5704C45.1011 30.51 45.1741 30.4628 45.2543 30.4316C45.3345 30.4004 45.4203 30.386 45.5063 30.3891H46.4652C47.7438 30.3891 48.7848 30.6092 49.5883 31.0495C50.3917 31.4897 51.0267 32.1587 51.4932 33.0564C51.9597 33.9542 52.3485 35.1541 52.6595 36.6561L54.2146 44.6581C54.2334 44.7376 54.2301 44.8207 54.205 44.8984C54.1798 44.9761 54.1339 45.0455 54.072 45.0989Z" fill="white"/>
<path d="M64.867 45.0999C64.8057 45.1604 64.7327 45.2076 64.6525 45.2388C64.5723 45.27 64.4865 45.2844 64.4004 45.2812H56.7807C56.6157 45.2812 56.4575 45.2157 56.3409 45.0991C56.2242 44.9826 56.1587 44.8245 56.1587 44.6596V43.1317C56.1587 42.9669 56.2242 42.8088 56.3409 42.6923C56.4575 42.5757 56.6157 42.5102 56.7807 42.5102H61.4718L61.1608 36.6835C61.1089 35.8203 61.0269 35.147 60.9145 34.6636C60.8022 34.1802 60.5906 33.8047 60.2796 33.5371C59.9686 33.2698 59.502 33.136 58.88 33.1357H57.6878C57.5229 33.1357 57.3646 33.0702 57.248 32.9536C57.1313 32.8371 57.0658 32.679 57.0658 32.5141V31.0121C57.0658 30.8473 57.1313 30.6892 57.248 30.5727C57.3646 30.4561 57.5229 30.3906 57.6878 30.3906H58.9319C60.3141 30.3906 61.407 30.6237 62.2104 31.0898C63.0139 31.556 63.597 32.2421 63.9599 33.1481C64.3227 34.0545 64.5387 35.2241 64.6078 36.6571L65.0225 44.6591C65.0327 44.7396 65.024 44.8214 64.997 44.8979C64.97 44.9745 64.9255 45.0436 64.867 45.0999Z" fill="white"/>
<path d="M80.0798 44.7369C80.0814 44.81 80.0672 44.8825 80.0382 44.9496C80.0091 45.0167 79.9658 45.0766 79.9113 45.1254C79.811 45.224 79.6762 45.2798 79.5355 45.2808H77.3584C77.209 45.2867 77.0609 45.2509 76.9308 45.1772C76.8298 45.1175 76.7381 45.0434 76.6587 44.9571C76.5897 44.8794 76.5462 44.8322 76.5291 44.8146L71.2938 37.3823C70.7063 37.8657 70.3089 38.4225 70.1015 39.0526C69.8888 39.718 69.7838 40.413 69.7905 41.1114V44.6333C69.7975 44.8047 69.737 44.972 69.6221 45.0995C69.5639 45.1604 69.4933 45.2081 69.415 45.2394C69.3368 45.2707 69.2527 45.2848 69.1685 45.2808H67.4061C67.3242 45.2823 67.2428 45.267 67.167 45.2358C67.0912 45.2046 67.0226 45.1582 66.9655 45.0995C66.9051 45.0382 66.8579 44.9653 66.8267 44.8851C66.7955 44.805 66.781 44.7193 66.7841 44.6333V41.0855C66.7841 39.7044 66.9828 38.5476 67.3802 37.6154C67.7776 36.6831 68.5379 35.8285 69.6609 35.0516L67.121 31.452C67.0436 31.327 66.9991 31.1844 66.9914 31.0376C66.9895 30.9657 67.0022 30.8941 67.029 30.8273C67.0557 30.7605 67.0959 30.6999 67.147 30.6492C67.1936 30.5999 67.2499 30.5607 67.3123 30.534C67.3747 30.5072 67.4419 30.4936 67.5098 30.4938H69.6091C69.9201 30.4938 70.1966 30.6578 70.4385 30.9858L75.2591 37.7449C75.933 37.3305 76.3606 36.8773 76.542 36.3853C76.7235 35.8932 76.8142 35.2674 76.8142 34.5078V31.1412C76.8074 30.9698 76.8679 30.8026 76.9826 30.6751C77.0409 30.6142 77.1115 30.5666 77.1897 30.5353C77.268 30.504 77.352 30.4899 77.4362 30.4938H79.3023C79.3853 30.4928 79.4676 30.5096 79.5437 30.5431C79.6197 30.5766 79.6876 30.626 79.7428 30.688C79.8605 30.8095 79.9256 30.9722 79.9243 31.1412V34.6373C79.9243 35.7767 79.7169 36.778 79.3023 37.6413C78.8876 38.5045 78.0841 39.3073 76.8919 40.0496L79.9243 44.3226C80.0202 44.4399 80.0749 44.5855 80.0798 44.7369Z" fill="white"/>
<path d="M24.3576 12.0032C25.3252 13.0563 25.809 14.7396 25.809 17.053C25.809 19.2456 25.2129 21.0066 24.0207 22.3359C22.8285 23.6653 21.308 24.6062 19.4592 25.1586L18.3966 25.4953C18.3167 25.5217 18.2312 25.526 18.1491 25.5077C18.0669 25.4895 17.9913 25.4494 17.9301 25.3917C17.8629 25.3344 17.8094 25.2628 17.7735 25.1821C17.7376 25.1015 17.7203 25.0138 17.7228 24.9256V23.0351C17.7251 22.8731 17.7848 22.7172 17.8912 22.5949C18.0109 22.4515 18.1678 22.344 18.3448 22.2841L19.2519 21.9216C20.254 21.5245 21.0272 20.9634 21.5715 20.2383C22.1158 19.5132 22.3879 18.4601 22.3879 17.0789C22.3879 16.1294 22.2799 15.3827 22.0639 14.8389C21.848 14.295 21.4851 13.9023 20.9754 13.6606C20.4657 13.4189 19.7616 13.298 18.8631 13.298H18.0597L15.1569 13.2721C14.9854 13.279 14.818 13.2186 14.6904 13.1038C14.6313 13.0497 14.5845 12.9836 14.5532 12.9098C14.5219 12.8361 14.5068 12.7565 14.509 12.6765V7.44538C14.5076 7.36352 14.523 7.28223 14.5542 7.20652C14.5854 7.13081 14.6317 7.06228 14.6904 7.00514C14.7517 6.94477 14.8247 6.89755 14.9049 6.86638C14.9852 6.8352 15.0709 6.82074 15.1569 6.82386H17.0489C17.1322 6.81767 17.2158 6.82951 17.2941 6.85855C17.3724 6.8876 17.4434 6.93317 17.5025 6.99217C17.5615 7.05116 17.6071 7.12219 17.6362 7.20041C17.6653 7.27862 17.6771 7.36218 17.6709 7.44538V10.4235H19.4592C21.7572 10.4235 23.39 10.9501 24.3576 12.0032Z" fill="white"/>
<path d="M40.8415 24.6666C40.8432 24.7397 40.829 24.8122 40.7999 24.8793C40.7708 24.9463 40.7275 25.0063 40.673 25.0551C40.5727 25.1537 40.438 25.2094 40.2972 25.2104H38.1202C37.9708 25.2162 37.8227 25.1803 37.6925 25.1069C37.5915 25.0472 37.4998 24.9731 37.4204 24.8867C37.3514 24.809 37.3079 24.7614 37.2908 24.7443L32.0555 17.312C31.468 17.7954 31.0706 18.3522 30.8633 18.9823C30.6505 19.6477 30.5455 20.3427 30.5523 21.0411V24.563C30.5592 24.7344 30.4987 24.9017 30.3838 25.0292C30.3256 25.09 30.2549 25.1377 30.1767 25.169C30.0985 25.2002 30.0144 25.2144 29.9302 25.2104H28.1678C28.0859 25.2119 28.0046 25.1965 27.9288 25.1653C27.853 25.1341 27.7844 25.0878 27.7273 25.0292C27.6668 24.9679 27.6196 24.895 27.5884 24.8148C27.5572 24.7347 27.5427 24.649 27.5458 24.563V21.0152C27.5458 19.634 27.7445 18.4773 28.1419 17.5451C28.5393 16.6128 29.2996 15.7582 30.4227 14.9813L27.8828 11.3817C27.8054 11.2566 27.7608 11.1141 27.7532 10.9673C27.7512 10.8954 27.764 10.8238 27.7907 10.757C27.8175 10.6902 27.8576 10.6296 27.9087 10.5789C27.9553 10.5296 28.0116 10.4904 28.074 10.4637C28.1364 10.4369 28.2036 10.4233 28.2715 10.4235H30.3708C30.6818 10.4235 30.9583 10.5875 31.2002 10.9155L36.0208 17.6745C36.6947 17.2602 37.1223 16.807 37.3038 16.315C37.4852 15.8229 37.5759 15.1971 37.5759 14.4375V11.0709C37.569 10.8995 37.6294 10.7322 37.7444 10.6048C37.8026 10.5439 37.8732 10.4962 37.9515 10.465C38.0297 10.4337 38.1137 10.4196 38.1979 10.4235H40.064C40.147 10.4225 40.2294 10.4393 40.3054 10.4728C40.3814 10.5063 40.4493 10.5557 40.5046 10.6177C40.6222 10.7392 40.6873 10.9019 40.686 11.0709V14.5669C40.686 15.7064 40.4787 16.7077 40.064 17.571C39.6493 18.4342 38.8458 19.237 37.6536 19.9793L40.686 24.2523C40.782 24.3695 40.8367 24.5152 40.8415 24.6666Z" fill="white"/>
<path d="M42.8886 18.9693C42.8299 18.9122 42.7836 18.8437 42.7524 18.768C42.7212 18.6923 42.7058 18.611 42.7072 18.5291V11.045C42.7032 10.9609 42.7174 10.8769 42.7487 10.7987C42.78 10.7206 42.8277 10.65 42.8886 10.5918C43.0077 10.4801 43.1659 10.4196 43.3292 10.4235H45.5322C45.6155 10.4173 45.6991 10.4291 45.7774 10.4582C45.8556 10.4872 45.9267 10.5328 45.9858 10.5918C46.0448 10.6508 46.0904 10.7218 46.1195 10.8C46.1486 10.8782 46.1604 10.9618 46.1542 11.045V18.5291C46.1581 18.6923 46.0976 18.8504 45.9857 18.9693C45.9275 19.0302 45.8569 19.0779 45.7787 19.1091C45.7004 19.1404 45.6164 19.1546 45.5322 19.1506H43.3292C43.2473 19.152 43.1659 19.1367 43.0902 19.1055C43.0144 19.0743 42.9458 19.028 42.8886 18.9693Z" fill="white"/>
<path d="M56.2364 25.029C56.1776 24.9719 56.1312 24.9034 56.0999 24.8277C56.0687 24.7519 56.0534 24.6706 56.055 24.5887V16.8716C56.055 14.42 54.8196 13.1942 52.3488 13.1942H48.7203C48.6343 13.1975 48.5485 13.1831 48.4683 13.1519C48.388 13.1207 48.315 13.0734 48.2538 13.013C48.195 12.9559 48.1486 12.8874 48.1174 12.8116C48.0862 12.7359 48.0708 12.6546 48.0724 12.5727V11.0448C48.0708 10.9629 48.0862 10.8816 48.1174 10.8059C48.1486 10.7302 48.195 10.6616 48.2538 10.6046C48.315 10.5441 48.388 10.4968 48.4683 10.4656C48.5485 10.4345 48.6343 10.4201 48.7203 10.4233H52.5043C54.8016 10.4233 56.5208 10.9369 57.6618 11.9641C58.8029 12.9914 59.3731 14.584 59.3724 16.7421V24.5887C59.3759 24.7518 59.3154 24.9098 59.2039 25.029C59.1456 25.0898 59.075 25.1374 58.9968 25.1686C58.9185 25.1999 58.8345 25.2141 58.7504 25.2102H56.677C56.595 25.2118 56.5136 25.1965 56.4378 25.1653C56.3621 25.1341 56.2935 25.0877 56.2364 25.029Z" fill="white"/>
<path d="M61.5746 25.0291C61.516 24.972 61.4696 24.9035 61.4384 24.8278C61.4072 24.7521 61.3918 24.6708 61.3932 24.5889V11.045C61.3893 10.9609 61.4034 10.8769 61.4347 10.7987C61.466 10.7206 61.5137 10.65 61.5746 10.5918C61.6937 10.4801 61.852 10.4196 62.0152 10.4235H64.1923C64.2756 10.4173 64.3592 10.4291 64.4375 10.4582C64.5158 10.4872 64.5868 10.5328 64.6459 10.5918C64.7049 10.6508 64.7505 10.7218 64.7796 10.8C64.8087 10.8782 64.8205 10.9618 64.8143 11.045V24.5889C64.8182 24.7521 64.7577 24.9102 64.6459 25.0291C64.5876 25.09 64.517 25.1377 64.4388 25.1689C64.3605 25.2002 64.2765 25.2144 64.1923 25.2104H62.0152C61.9333 25.2118 61.852 25.1965 61.7762 25.1653C61.7004 25.1341 61.6318 25.0878 61.5746 25.0291Z" fill="white"/>
<path d="M79.0433 12.0675C80.1145 13.1637 80.6502 14.7219 80.6502 16.7418V24.5885C80.6537 24.7515 80.5932 24.9095 80.4817 25.0287C80.4234 25.0895 80.3528 25.1371 80.2746 25.1684C80.1963 25.1996 80.1123 25.2138 80.0282 25.21H73.16C72.9951 25.21 72.8368 25.1445 72.7202 25.0279C72.6035 24.9114 72.538 24.7533 72.538 24.5885V23.0606C72.534 22.9764 72.5481 22.8924 72.5794 22.8142C72.6107 22.736 72.6584 22.6655 72.7194 22.6074C72.8385 22.4956 72.9967 22.4352 73.16 22.439H77.3068V16.9231C77.3068 15.8181 77.0347 14.9377 76.4904 14.2816C75.9462 13.6256 75.2421 13.2975 74.3781 13.2975H72.0197L69.9203 24.5626C69.8924 24.7382 69.8109 24.901 69.6871 25.0287C69.6298 25.0873 69.5612 25.1336 69.4855 25.1647C69.4097 25.1959 69.3284 25.2113 69.2465 25.21H67.199C67.1177 25.2119 67.037 25.1954 66.9629 25.1617C66.8889 25.1281 66.8234 25.0782 66.7714 25.0158C66.7166 24.9548 66.6755 24.8828 66.6509 24.8046C66.6263 24.7264 66.6188 24.6439 66.6288 24.5626L68.9614 13.2975H67.4323C67.2673 13.2975 67.1091 13.2321 66.9924 13.1155C66.8758 12.999 66.8102 12.8409 66.8102 12.676V11.0445C66.8062 10.9604 66.8203 10.8764 66.8516 10.7982C66.8829 10.72 66.9307 10.6495 66.9917 10.5914C67.1107 10.4796 67.269 10.4192 67.4323 10.423H74.8447C76.5718 10.423 77.9713 10.9712 79.0433 12.0675Z" fill="white"/>
<path d="M5.96808 54.2861C5.90472 54.2866 5.84336 54.264 5.79561 54.2223C5.74786 54.1807 5.71701 54.1231 5.7089 54.0603L0.258974 11.6474C0.25461 11.6137 0.256941 11.5794 0.265833 11.5466C0.274726 11.5137 0.290006 11.483 0.310801 11.456C0.331596 11.4291 0.357498 11.4065 0.387027 11.3896C0.416557 11.3727 0.449135 11.3617 0.482901 11.3574L7.97409 10.3961C7.98514 10.3953 7.99622 10.3953 8.00726 10.3961C8.076 10.3961 8.14192 10.4234 8.19053 10.4719C8.23913 10.5205 8.26644 10.5864 8.26644 10.655V12.4818C8.26696 12.5451 8.24425 12.6064 8.20261 12.6541C8.16097 12.7018 8.10328 12.7327 8.04044 12.7408L2.89115 13.4047L7.81237 51.7079L34.3052 48.3025C34.3163 48.3017 34.3273 48.3017 34.3384 48.3025H48.5868C48.6555 48.2981 48.7232 48.3211 48.7749 48.3666C48.8266 48.412 48.8581 48.4762 48.8625 48.5448C48.8669 48.6135 48.8439 48.6811 48.7984 48.7328C48.7529 48.7845 48.6887 48.816 48.62 48.8204L6.00177 54.284C5.9906 54.2855 5.97934 54.2862 5.96808 54.2861Z" fill="#555FFF"/>
<path d="M8.00959 10.6537V12.4825L2.60113 13.1817L7.58869 52.0007L34.3386 48.5621H48.587L5.96885 54.0279L0.518406 11.615L8.00959 10.6537ZM8.00959 10.1357C7.98759 10.1358 7.96561 10.1372 7.94376 10.1399L0.452575 11.1012C0.385046 11.1098 0.319881 11.1316 0.2608 11.1654C0.201719 11.1992 0.14988 11.2443 0.108244 11.2982C0.0666074 11.352 0.0359892 11.4135 0.0181377 11.4791C0.000286168 11.5447 -0.00444894 11.6133 0.00420279 11.6807L5.45465 54.0936C5.47065 54.2185 5.53162 54.3333 5.62616 54.4165C5.7207 54.4997 5.84234 54.5457 5.96833 54.5458C5.99051 54.5457 6.01266 54.5443 6.03468 54.5417L48.6529 49.0738C48.7836 49.0572 48.9032 48.9914 48.9871 48.8898C49.0711 48.7883 49.1131 48.6586 49.1047 48.5271C49.0963 48.3956 49.0381 48.2723 48.942 48.1822C48.8458 48.0921 48.7189 48.042 48.587 48.0421H34.3386C34.3165 48.0422 34.2943 48.0436 34.2723 48.0463L8.03707 51.419L3.18117 13.6287L8.07646 12.9947C8.20133 12.9785 8.31602 12.9174 8.39911 12.8228C8.48219 12.7283 8.52799 12.6068 8.52794 12.4809V10.6537C8.52794 10.5163 8.47333 10.3846 8.37612 10.2874C8.27891 10.1903 8.14707 10.1357 8.00959 10.1357Z" fill="#555FFF"/>
<path d="M99.4819 45.6618C99.4645 45.6615 99.4471 45.6596 99.43 45.6561L89.0641 43.4549L83.7412 44.2732C83.7281 44.2752 83.715 44.2763 83.7018 44.2763C83.6342 44.2763 83.5693 44.25 83.5208 44.2028C83.4724 44.1557 83.4443 44.0916 83.4426 44.0241L83.3908 42.0409C83.3891 41.9776 83.4107 41.9159 83.4514 41.8674C83.4922 41.8189 83.5494 41.787 83.6121 41.7778L88.8609 41.0009C88.8735 41.0001 88.8861 41.0001 88.8987 41.0009C88.919 41.001 88.9392 41.0034 88.9589 41.0081L95.1692 42.4791L87.0617 31.2151C87.0363 31.1794 87.0203 31.1379 87.015 31.0944L83.6618 2.8371L65.1894 5.20716C65.1784 5.20793 65.1673 5.20793 65.1563 5.20716H50.9125C50.8785 5.20933 50.8444 5.20479 50.8121 5.19379C50.7798 5.18278 50.75 5.16554 50.7244 5.14303C50.6727 5.09757 50.6412 5.03345 50.6368 4.96477C50.6324 4.89608 50.6554 4.82847 50.7009 4.77679C50.7464 4.72512 50.8106 4.69362 50.8793 4.68923L85.4242 0.259356C85.4353 0.2586 85.4464 0.2586 85.4574 0.259356C85.5212 0.258911 85.5828 0.281962 85.6307 0.324099C85.6785 0.366237 85.7091 0.424506 85.7166 0.487764L89.2585 30.3403L99.696 45.2567C99.7232 45.2956 99.7392 45.3411 99.7423 45.3884C99.7455 45.4357 99.7355 45.483 99.7136 45.525C99.6917 45.5671 99.6586 45.6023 99.618 45.6269C99.5774 45.6514 99.5309 45.6644 99.4834 45.6643L99.4819 45.6618Z" fill="#555FFF"/>
<path d="M85.4572 0.517932L89.0068 30.4352L99.4817 45.4034L89.0711 43.1934L83.7015 44.018L83.6497 42.0348L88.8985 41.2579L95.7848 42.892L87.2719 31.0635L83.8887 2.54667L65.1565 4.94987H50.9123L85.4572 0.517932ZM85.4572 0C85.4352 9.07125e-05 85.4132 0.00147425 85.3914 0.00414345L50.8465 4.43608C50.7157 4.45271 50.5962 4.51851 50.5122 4.62008C50.4283 4.72165 50.3862 4.85137 50.3946 4.98283C50.403 5.11429 50.4612 5.23762 50.5574 5.32771C50.6535 5.41781 50.7805 5.46791 50.9123 5.4678H65.1565C65.1786 5.46773 65.2005 5.46635 65.2224 5.46366L83.4356 3.12675L86.7572 31.1246C86.7675 31.2117 86.7998 31.2947 86.851 31.3659L94.5527 42.0664L89.0182 40.7529C88.979 40.7436 88.9388 40.7389 88.8985 40.7389C88.8732 40.739 88.8479 40.7409 88.8228 40.7446L83.574 41.5215C83.4487 41.54 83.3345 41.6036 83.2529 41.7005C83.1713 41.7974 83.1281 41.9207 83.1314 42.0472L83.1832 44.0304C83.1867 44.1654 83.2429 44.2937 83.3397 44.388C83.4365 44.4822 83.5664 44.5349 83.7015 44.5349C83.7279 44.5349 83.7543 44.5328 83.7803 44.5287L89.0561 43.7186L99.3712 45.9089C99.4067 45.9165 99.4428 45.9204 99.4791 45.9203C99.5739 45.9204 99.6669 45.8944 99.748 45.8453C99.8291 45.7962 99.8951 45.7258 99.9389 45.6418C99.9828 45.5578 100.003 45.4634 99.9966 45.3689C99.9904 45.2743 99.9584 45.1833 99.9041 45.1056L89.5065 30.2472L85.9719 0.456816C85.9569 0.330922 85.8963 0.214888 85.8014 0.130696C85.7065 0.0465035 85.5841 1.72358e-06 85.4572 0Z" fill="#555FFF"/>
</svg>
