<svg width="36" height="36" viewBox="0 0 36 36" fill="none" xmlns="http://www.w3.org/2000/svg">
<circle cx="18" cy="18" r="18" fill="#3CDD53"/>
<path d="M22.7988 19.4922C22.7599 19.4735 21.3018 18.7555 21.0427 18.6623C20.9369 18.6243 20.8236 18.5872 20.7031 18.5872C20.5062 18.5872 20.3408 18.6853 20.212 18.878C20.0663 19.0945 19.6254 19.6099 19.4892 19.7639C19.4714 19.7842 19.4471 19.8085 19.4326 19.8085C19.4195 19.8085 19.1939 19.7156 19.1256 19.6859C17.5615 19.0065 16.3743 17.3727 16.2115 17.0971C16.1882 17.0575 16.1872 17.0395 16.1871 17.0395C16.1928 17.0186 16.2454 16.9658 16.2725 16.9386C16.3519 16.8601 16.438 16.7565 16.5212 16.6563C16.5606 16.6088 16.6001 16.5613 16.6389 16.5165C16.7597 16.376 16.8134 16.2669 16.8758 16.1405L16.9084 16.0749C17.0606 15.7725 16.9306 15.5173 16.8886 15.4349C16.8541 15.3659 16.2385 13.8801 16.173 13.724C16.0156 13.3473 15.8076 13.1719 15.5186 13.1719C15.4918 13.1719 15.5186 13.1719 15.4061 13.1766C15.2692 13.1824 14.5234 13.2806 14.1937 13.4884C13.844 13.7089 13.2524 14.4116 13.2524 15.6475C13.2524 16.7597 13.9583 17.8099 14.2613 18.2093C14.2689 18.2194 14.2827 18.2399 14.3028 18.2692C15.4634 19.9642 16.9102 21.2203 18.3769 21.8062C19.7889 22.3702 20.4575 22.4354 20.8376 22.4354H20.8377C20.9974 22.4354 21.1253 22.4229 21.2381 22.4118L21.3097 22.4049C21.7974 22.3617 22.8694 21.8062 23.1132 21.1286C23.3053 20.5949 23.356 20.0118 23.2282 19.8002C23.1406 19.6563 22.9898 19.5839 22.7988 19.4922Z" fill="white"/>
<path d="M18.1775 8C12.7609 8 8.35414 12.3736 8.35414 17.7496C8.35414 19.4883 8.81947 21.1903 9.70096 22.6799L8.01375 27.6569C7.98232 27.7497 8.0057 27.8523 8.07434 27.9222C8.12388 27.9727 8.19109 28 8.25973 28C8.28602 28 8.31252 27.9961 8.33836 27.9878L13.528 26.3387C14.9481 27.0975 16.5532 27.498 18.1776 27.498C23.5937 27.4981 28 23.1249 28 17.7496C28 12.3736 23.5937 8 18.1775 8ZM18.1775 25.4672C16.649 25.4672 15.1686 25.0258 13.896 24.1907C13.8532 24.1626 13.8035 24.1482 13.7535 24.1482C13.7271 24.1482 13.7006 24.1522 13.6748 24.1604L11.0751 24.9868L11.9143 22.5109C11.9415 22.4307 11.9279 22.3423 11.8779 22.274C10.9088 20.9499 10.3965 19.3854 10.3965 17.7496C10.3965 13.4935 13.8871 10.0309 18.1775 10.0309C22.4673 10.0309 25.9575 13.4935 25.9575 17.7496C25.9575 22.0051 22.4675 25.4672 18.1775 25.4672Z" fill="white"/>
</svg>
